HIERARCHY
ROOT Hips
{
	OFFSET -3.958830 18.904000 13.208200
	CHANNELS 6 Xposition Yposition Zposition Zrotation Yrotation Xrotation 
	JOINT LHipJoint
	{
		OFFSET 0.000000 0.000000 0.000000
		CHANNELS 3 Zrotation Yrotation Xrotation
		JOINT LeftUpLeg
		{
			OFFSET 1.800000 -1.400000 0.085000
			CHANNELS 3 Zrotation Yrotation Xrotation
			JOINT LeftLeg
			{
				OFFSET 2.215000 -6.000000 0.000000
				CHANNELS 3 Zrotation Yrotation Xrotation
				JOINT LeftFoot
				{
					OFFSET 2.500000 -6.900000 0.000000
					CHANNELS 3 Zrotation Yrotation Xrotation
					JOINT LeftToeBase
					{
						OFFSET 0.200000 -0.500000 1.950000
						CHANNELS 3 Zrotation Yrotation Xrotation
						End Site
						{
							OFFSET 0.000000 0.000000 0.000000
						}
					}
				}
			}
		}
	}
	JOINT RHipJoint
	{
		OFFSET 0.000000 0.000000 0.000000
		CHANNELS 3 Zrotation Yrotation Xrotation
		JOINT RightUpLeg
		{
			OFFSET -1.800000 -1.400000 0.085000
			CHANNELS 3 Zrotation Yrotation Xrotation
			JOINT RightLeg
			{
				OFFSET -2.215000 -6.000000 0.000000
				CHANNELS 3 Zrotation Yrotation Xrotation
				JOINT RightFoot
				{
					OFFSET -2.500000 -6.900000 0.000000
					CHANNELS 3 Zrotation Yrotation Xrotation
					JOINT RightToeBase
					{
						OFFSET -0.200000 -0.500000 1.950000
						CHANNELS 3 Zrotation Yrotation Xrotation
						End Site
						{
							OFFSET 0.000000 0.000000 0.000000
						}
					}
				}
			}
		}
	}
	JOINT LowerBack
	{
		OFFSET 0.000000 0.000000 0.000000
		CHANNELS 3 Zrotation Yrotation Xrotation
		JOINT Spine
		{
			OFFSET -0.087000 1.940000 -0.288900
			CHANNELS 3 Zrotation Yrotation Xrotation
			JOINT Spine1
			{
				OFFSET 0.000000 1.950000 0.060000
				CHANNELS 3 Zrotation Yrotation Xrotation
				JOINT Neck
				{
					OFFSET 0.000000 0.000000 0.000000
					CHANNELS 3 Zrotation Yrotation Xrotation
					JOINT Neck1
					{
						OFFSET 0.000000 1.600000 0.340000
						CHANNELS 3 Zrotation Yrotation Xrotation
						JOINT Head
						{
							OFFSET 0.000000 1.667000 -0.240000
							CHANNELS 3 Zrotation Yrotation Xrotation
							End Site
							{
								OFFSET 0.000000 0.000000 0.000000
							}
						}
					}
				}
				JOINT LeftShoulder
				{
					OFFSET 0.000000 0.000000 0.000000
					CHANNELS 3 Zrotation Yrotation Xrotation
					JOINT LeftArm
					{
						OFFSET 2.700000 1.550000 -0.730000
						CHANNELS 3 Zrotation Yrotation Xrotation
						JOINT LeftForeArm
						{
							OFFSET 5.450000 0.000000 0.000000
							CHANNELS 3 Zrotation Yrotation Xrotation
							JOINT LeftHand
							{
								OFFSET 3.450000 0.000000 0.000000
								CHANNELS 3 Zrotation Yrotation Xrotation
								JOINT LeftHandIndex1
								{
									OFFSET 0.750000 0.000000 0.000000
									CHANNELS 3 Zrotation Yrotation Xrotation
									End Site
									{
										OFFSET 0.000000 0.000000 0.000000
									}
								}
							}
						}
					}
				}
				JOINT RightShoulder
				{
					OFFSET 0.000000 0.000000 0.000000
					CHANNELS 3 Zrotation Yrotation Xrotation
					JOINT RightArm
					{
						OFFSET -2.700000 1.550000 -0.730000
						CHANNELS 3 Zrotation Yrotation Xrotation
						JOINT RightForeArm
						{
							OFFSET -5.450000 0.000000 0.000000
							CHANNELS 3 Zrotation Yrotation Xrotation
							JOINT RightHand
							{
								OFFSET -3.450000 0.000000 0.000000
								CHANNELS 3 Zrotation Yrotation Xrotation
								JOINT RightHandIndex1
								{
									OFFSET -0.750000 0.000000 0.000000
									CHANNELS 3 Zrotation Yrotation Xrotation
									End Site
									{
										OFFSET 0.000000 0.000000 0.000000
									}
								}
							}
						}
					}
				}
			}
		}
	}
}
MOTION
Frames: 6
Frame Time: 0.016667
0.365450 10.139950 -4.244190 3.349512 25.793555 -19.508283 -15.931987 4.878683 9.166435 42.936197 4.495928 -66.281704 -73.852091 -4.632325 -10.856453 1.539368 8.703006 1.549097 0.354410 0.437770 0.223070 19.222350 -2.969829 6.398919 -22.043494 23.231756 -108.126947 31.431695 -27.011703 64.342648 -2.403652 -13.352695 -0.050044 0.348810 0.063910 0.072540 -2.809064 -2.330365 -12.527650 -1.677717 2.916981 81.777224 -5.141806 8.494530 11.250036 2.892552 3.946202 -7.008149 3.609491 -1.139907 64.530317 2.535950 2.778730 1.407770 -25.196001 -25.213690 -1.613603 -28.710158 -34.815555 -6.619107 39.464527 -70.982691 -26.645866 -3.436968 2.403396 -0.016270 0.108000 0.044460 0.090690 18.208591 26.131232 3.708970 25.923887 29.044119 -1.632343 -5.950071 19.258439 -1.703652 2.504636 -1.339976 0.010120 0.109380 -0.105950 -0.009970 
0.364310 10.142770 -4.250170 3.486880 25.694944 -19.343583 -15.929172 4.922776 9.117442 42.550424 4.312663 -67.098299 -73.447641 -3.745749 -9.880942 1.547309 8.778702 1.527009 0.345280 0.426650 0.218710 19.219611 -2.992864 6.421606 -21.988014 23.322765 -107.989856 31.308064 -26.709289 64.123942 -2.377276 -13.264453 -0.025997 0.341390 0.068260 0.070530 -2.821890 -2.320903 -12.508410 -1.702790 3.050943 81.761879 -5.269742 8.477946 11.133439 2.929059 3.954725 -7.130644 3.577498 -1.163331 64.430288 2.464590 2.741580 1.554600 -25.155177 -25.393829 -1.560884 -28.596501 -34.629164 -6.815181 39.157244 -71.066903 -26.510180 -3.440790 2.406891 -0.017330 0.110170 0.041170 0.089430 18.090973 26.342449 3.850221 25.933255 28.858174 -1.734617 -5.929461 19.418821 -1.694926 2.500327 -1.338671 0.007230 0.111470 -0.102620 -0.009580 
0.363470 10.142090 -4.268130 3.892382 25.447017 -18.913573 -15.931612 5.020684 9.026162 41.943000 3.953019 -69.275577 -72.529537 -1.614732 -7.398385 1.565382 8.967421 1.468788 0.338250 0.419350 0.213180 19.208882 -3.033299 6.459324 -21.870525 23.627154 -108.112616 30.823589 -26.207029 64.171341 -2.342225 -13.172020 -0.002257 0.337300 0.074040 0.069370 -2.826504 -2.345440 -12.461490 -2.000711 3.432967 81.632964 -5.221900 8.409590 10.972719 2.879755 3.846217 -7.131535 3.211015 -1.039754 64.086135 2.222530 2.672490 1.734360 -24.887726 -25.315495 -1.571755 -28.710064 -34.617728 -6.843563 39.079031 -71.048275 -26.470080 -3.444186 2.409332 -0.025570 0.115450 0.034920 0.091210 17.899184 26.402043 3.840267 25.954877 28.855555 -1.798390 -6.043142 19.849163 -1.717007 2.494666 -1.342541 0.006290 0.111370 -0.102270 -0.006560 
0.368820 10.143430 -4.264950 3.715118 25.416127 -19.142250 -15.934388 5.002042 9.051400 42.324607 4.210746 -68.938473 -72.957151 -1.682563 -7.505648 1.573556 8.984622 1.467746 0.330180 0.409540 0.207390 19.210715 -3.014618 6.455838 -21.971334 23.493752 -108.069678 31.051154 -26.394859 64.065214 -2.348200 -13.197203 -0.005271 0.332090 0.079650 0.067160 -2.823643 -2.360998 -12.475763 -2.040053 3.263815 81.789405 -5.207959 8.269893 10.989027 2.819438 3.542533 -7.153228 2.527545 -0.599425 64.235782 2.099260 2.747530 1.905890 -24.953633 -25.332848 -1.450736 -28.679118 -34.302880 -7.059320 40.215518 -71.130732 -27.307729 -3.440313 2.378418 -0.026710 0.117860 0.030430 0.090620 18.076771 26.589562 3.771653 25.592978 29.056603 -1.838356 -5.927471 19.720951 -1.689036 2.500505 -1.333358 0.002550 0.114590 -0.097770 -0.005850 
0.394340 10.130350 -4.278700 3.895277 25.028003 -18.512633 -15.935843 4.843065 9.172437 43.016606 5.009976 -66.947262 -73.291006 -4.256555 -10.705757 1.548692 8.748681 1.548560 0.322290 0.398420 0.204830 19.230130 -2.925473 6.461252 -22.695748 23.141876 -108.799141 31.259906 -26.533664 63.727667 -2.340414 -13.183766 -0.000849 0.326450 0.084020 0.067580 -2.840944 -2.277083 -12.549209 -1.699228 2.944758 81.073080 -5.681767 8.192775 11.056053 3.019159 3.517662 -7.161894 2.488657 -0.611999 64.461023 1.860640 2.758230 2.179310 -25.255906 -25.222076 -1.408175 -28.982922 -34.443265 -6.802309 39.948690 -71.226720 -27.182476 -3.450225 2.380697 -0.029990 0.123130 0.025310 0.088320 17.982350 26.401318 3.723763 25.356334 29.032309 -1.746830 -5.862463 19.816119 -1.653496 2.500423 -1.328400 -0.000040 0.114050 -0.093770 -0.006770 
0.407410 10.123300 -4.281590 3.902868 24.956487 -18.475068 -15.940652 4.749101 9.253564 43.586523 5.490980 -65.592339 -73.686060 -5.710345 -12.466061 1.543436 8.626218 1.596667 0.309070 0.380090 0.201470 19.240355 -2.849090 6.472313 -23.138792 22.828347 -109.079730 31.029962 -26.679165 63.891842 -2.340175 -13.220475 -0.007344 0.315390 0.088740 0.063580 -2.834684 -2.278629 -12.604838 -1.627964 2.701414 81.058074 -5.793875 7.987624 11.053695 3.071287 3.328334 -7.280076 2.093084 -0.295545 64.595969 1.615320 2.945930 2.563420 -25.518899 -25.442255 -1.200758 -28.741710 -33.942376 -7.140418 40.889227 -71.771262 -28.131792 -3.446691 2.351584 -0.031070 0.126370 0.019930 0.086600 18.161055 26.692892 3.765805 24.817339 29.047125 -1.987187 -6.332940 19.897788 -1.722446 2.502186 -1.326366 -0.006230 0.115270 -0.090960 -0.008520 
